# xmcd
#
# Track frame offsets:
#	150
#	14385
#	31045
#	41727
#	54755
#	63657
#	73992
#	82740
#	97257
#	116252
#	128280
#	146602
#	165287
#	177367
#	188805
#	196190
#	211725
#	224392
#	245167
#	255315
#	269110
#	282410
#	301452
#	314905
#	331357
#
# Disc length: 4590 seconds
#
# Revision: 4
# Processed by: cddbd v1.5.2PL0 Copyright (c) Steve Scherf et al.
# Submitted via: audiograbber 1.83.01
#
DISCID=7011ec19
DTITLE=Various Artist - Blues Classics (Vol. 2)
DYEAR=1996
DGENRE=Blues
TTITLE0=Memphis Slim - Blue And Lonesome
TTITLE1=Waters, Muddy - Caldonia
TTITLE2=Williams, Big Joe - Sinking Blues
TTITLE3=Holiday, Billie - Billies Blues
TTITLE4=Canned Heat - Pretty Thing
TTITLE5=Charles, Ray - Sitting On Top Of The World
TTITLE6=Hooker, John Lee - Hobo Blues
TTITLE7=Hopkins, Lightnin´ - Goin' Back Home
TTITLE8=Hurt, Mississippi John - Monday Morning Blues
TTITLE9=Leadbelly - Good Night Irene
TTITLE10=Perkins, Pinetop - Whiskey Headed Woman
TTITLE11=Howlin' Wolf - All My Life
TTITLE12=Reed, Jimmy - Goin' Fishing
TTITLE13=Slim, Lightning - Bad Luck Blues
TTITLE14=Williams, Big Joe - Terraplane Blues
TTITLE15=Holiday, Billie - Blue Moon
TTITLE16=Waters, Muddy - Baby, Pleas Don't Go
TTITLE17=Turner, Big Joe - Hide and Go Seek
TTITLE18=Canned Heat - Rollin' and Tumblin' (Part 1)
TTITLE19=Charles, Ray - I'm Going Down To The River
TTITLE20=Hooker, John Lee - Baby Lee
TTITLE21=Hopkins, Lightnin' - Good Times
TTITLE22=Howlin' Wolf - Forty Four
TTITLE23=Hurt, Mississippi John - Richland Woman Blues
TTITLE24=Leadbelly - Famin Street
EXTD=YEAR: 1996
EXTT0=
EXTT1=
EXTT2=
EXTT3=
EXTT4=
EXTT5=
EXTT6=
EXTT7=
EXTT8=
EXTT9=
EXTT10=
EXTT11=
EXTT12=
EXTT13=
EXTT14=
EXTT15=
EXTT16=
EXTT17=
EXTT18=
EXTT19=
EXTT20=
EXTT21=
EXTT22=
EXTT23=
EXTT24=
PLAYORDER=
